<?xml version="1.0" encoding="UTF-8"?>
<!-- Professor Hoot — StoryStep tour guide. Generated from src/guides/guides.ts. -->
<svg xmlns="http://www.w3.org/2000/svg" viewBox="0 0 100 120" width="200" height="240">
  <g class="ss-leg ss-leg-l"><rect x="38" y="96" width="7" height="10" rx="3" fill="#E6A23C"/><ellipse cx="39" cy="110" rx="9" ry="4" fill="#E6A23C" stroke="#8A5A12" stroke-width="2.5"/></g>
  <g class="ss-leg ss-leg-r"><rect x="55" y="96" width="7" height="10" rx="3" fill="#E6A23C"/><ellipse cx="61" cy="110" rx="9" ry="4" fill="#E6A23C" stroke="#8A5A12" stroke-width="2.5"/></g>
  <g class="ss-body">
    <path d="M22 52 Q8 72 21 94 Q30 82 27 58 Z" fill="#7A4E2D" stroke="#3E2414" stroke-width="3" stroke-linejoin="round"/>
    <path d="M78 52 Q92 72 79 94 Q70 82 73 58 Z" fill="#7A4E2D" stroke="#3E2414" stroke-width="3" stroke-linejoin="round"/>
    <ellipse cx="50" cy="63" rx="31" ry="38" fill="#9A6A43" stroke="#3E2414" stroke-width="3"/>
    <ellipse cx="50" cy="76" rx="19" ry="21" fill="#F1D9B5"/>
    <path d="M41 70 q4 4 8 0 M51 70 q4 4 8 0 M45 78 q5 4 10 0 M41 86 q4 4 8 0 M51 86 q4 4 8 0" stroke="#C9A57A" stroke-width="2" fill="none" stroke-linecap="round"/>
    <path d="M24 40 L20 24 L34 34 Z" fill="#7A4E2D" stroke="#3E2414" stroke-width="2.5" stroke-linejoin="round"/>
    <path d="M76 40 L80 24 L66 34 Z" fill="#7A4E2D" stroke="#3E2414" stroke-width="2.5" stroke-linejoin="round"/>
    <circle cx="39" cy="47" r="12" fill="#F1D9B5"/>
    <circle cx="61" cy="47" r="12" fill="#F1D9B5"/>
    <circle cx="39" cy="47" r="7.5" fill="#FFFFFF" stroke="#3E2414" stroke-width="2"/><circle cx="40" cy="47" r="4.2" fill="#111827"/><circle cx="41.4" cy="45.6" r="1.4" fill="#FFFFFF"/>
    <circle cx="61" cy="47" r="7.5" fill="#FFFFFF" stroke="#3E2414" stroke-width="2"/><circle cx="60" cy="47" r="4.2" fill="#111827"/><circle cx="61.4" cy="45.6" r="1.4" fill="#FFFFFF"/>
    <circle cx="39" cy="47" r="10" fill="none" stroke="#3E2414" stroke-width="1.6"/>
    <circle cx="61" cy="47" r="10" fill="none" stroke="#3E2414" stroke-width="1.6"/>
    <path d="M49 46 Q50 44 51 46" stroke="#3E2414" stroke-width="1.6" fill="none"/>
    <path d="M46 55 L54 55 L50 63 Z" fill="#E6A23C" stroke="#8A5A12" stroke-width="2" stroke-linejoin="round"/>
    <path d="M33 30 Q50 25 67 30 L67 36 Q50 32 33 36 Z" fill="#1F2933"/>
    <path d="M20 23 L50 12 L80 23 L50 33 Z" fill="#1F2933" stroke="#0B1015" stroke-width="2" stroke-linejoin="round"/>
    <path d="M50 22 L73 26 L73 39" stroke="#F4C430" stroke-width="2.5" fill="none" stroke-linecap="round"/>
    <circle cx="73" cy="40" r="3" fill="#F4C430"/>
  </g>
</svg>
